<mxfile host="65bd71144e" scale="1.2" border="0">
    <diagram id="Aivqml-ADPJbA_GyeIOO" name="Page-1">
        <mxGraphModel dx="1335" dy="648" grid="1" gridSize="10" guides="1" tooltips="1" connect="1" arrows="1" fold="1" page="1" pageScale="1" pageWidth="827" pageHeight="1169" background="#FFFFFF" math="0" shadow="0">
            <root>
                <mxCell id="0"/>
                <mxCell id="1" parent="0"/>
                <mxCell id="100" value="" style="edgeStyle=none;rounded=0;orthogonalLoop=1;jettySize=auto;html=1;fillColor=#FFFFFF;strokeColor=#000000;fontColor=#000000;labelBackgroundColor=none;" parent="1" source="101" target="103" edge="1">
                    <mxGeometry relative="1" as="geometry"/>
                </mxCell>
                <mxCell id="101" value="start" style="ellipse;whiteSpace=wrap;html=1;fillColor=#E6FFCC;strokeColor=#000000;fontSize=11;fontColor=#000000;rounded=0;labelBackgroundColor=none;endArrow=classic;" parent="1" vertex="1">
                    <mxGeometry x="169" y="50" width="80" height="40" as="geometry"/>
                </mxCell>
                <mxCell id="102" value="" style="edgeStyle=none;rounded=0;orthogonalLoop=1;jettySize=auto;html=1;fillColor=#FFFFFF;strokeColor=#000000;fontColor=#000000;labelBackgroundColor=none;" parent="1" source="103" target="106" edge="1">
                    <mxGeometry relative="1" as="geometry"/>
                </mxCell>
                <mxCell id="103" value="n = 6&lt;br&gt;arr[n]&lt;br&gt;len = Length(arr)" style="rounded=0;whiteSpace=wrap;html=1;fontSize=11;fillColor=#FFFFFF;strokeColor=#000000;fontColor=#000000;labelBackgroundColor=none;endArrow=classic;" parent="1" vertex="1">
                    <mxGeometry x="149" y="120" width="120" height="50" as="geometry"/>
                </mxCell>
                <mxCell id="104" value="" style="edgeStyle=none;rounded=0;orthogonalLoop=1;jettySize=auto;html=1;fillColor=#FFFFFF;strokeColor=#000000;fontColor=#000000;labelBackgroundColor=none;" parent="1" source="106" target="108" edge="1">
                    <mxGeometry relative="1" as="geometry"/>
                </mxCell>
                <mxCell id="105" style="edgeStyle=none;rounded=0;orthogonalLoop=1;jettySize=auto;html=1;exitX=1;exitY=0.5;exitDx=0;exitDy=0;fillColor=#FFFFFF;strokeColor=#000000;fontColor=#000000;labelBackgroundColor=none;" parent="1" source="106" target="120" edge="1">
                    <mxGeometry relative="1" as="geometry">
                        <mxPoint x="384" y="260" as="targetPoint"/>
                        <Array as="points">
                            <mxPoint x="389" y="225"/>
                        </Array>
                    </mxGeometry>
                </mxCell>
                <mxCell id="106" value="i = 0, len -1, 1" style="shape=hexagon;perimeter=hexagonPerimeter2;whiteSpace=wrap;html=1;fixedSize=1;fontSize=11;fillColor=#FFFFFF;strokeColor=#000000;fontColor=#000000;rounded=0;labelBackgroundColor=none;endArrow=classic;" parent="1" vertex="1">
                    <mxGeometry x="129" y="200" width="160" height="50" as="geometry"/>
                </mxCell>
                <mxCell id="107" style="edgeStyle=none;rounded=0;orthogonalLoop=1;jettySize=auto;html=1;exitX=0.5;exitY=1;exitDx=0;exitDy=0;entryX=0;entryY=0.5;entryDx=0;entryDy=0;fillColor=#FFFFFF;strokeColor=#000000;fontColor=#000000;labelBackgroundColor=none;" parent="1" source="108" target="106" edge="1">
                    <mxGeometry relative="1" as="geometry">
                        <Array as="points">
                            <mxPoint x="209" y="370"/>
                            <mxPoint x="89" y="370"/>
                            <mxPoint x="89" y="225"/>
                        </Array>
                    </mxGeometry>
                </mxCell>
                <mxCell id="108" value="arr[i] = Random [-50.0, 50.0]" style="whiteSpace=wrap;html=1;fontSize=11;fillColor=#FFFFFF;strokeColor=#000000;fontColor=#000000;rounded=0;labelBackgroundColor=none;endArrow=classic;" parent="1" vertex="1">
                    <mxGeometry x="109" y="280" width="200" height="60" as="geometry"/>
                </mxCell>
                <mxCell id="109" value="" style="edgeStyle=none;rounded=0;orthogonalLoop=1;jettySize=auto;html=1;fillColor=#FFFFFF;strokeColor=#000000;fontColor=#000000;labelBackgroundColor=none;" parent="1" source="110" target="116" edge="1">
                    <mxGeometry relative="1" as="geometry"/>
                </mxCell>
                <mxCell id="110" value="&lt;span&gt;i = 0, len -1, 1&lt;/span&gt;" style="shape=hexagon;perimeter=hexagonPerimeter2;whiteSpace=wrap;html=1;fixedSize=1;fontSize=11;fillColor=#FFFFFF;strokeColor=#000000;fontColor=#000000;rounded=0;labelBackgroundColor=none;endArrow=classic;" parent="1" vertex="1">
                    <mxGeometry x="319" y="340" width="140" height="50" as="geometry"/>
                </mxCell>
                <mxCell id="111" value="" style="edgeStyle=none;rounded=0;orthogonalLoop=1;jettySize=auto;html=1;fillColor=#FFFFFF;strokeColor=#000000;fontColor=#000000;labelBackgroundColor=none;" parent="1" source="116" target="118" edge="1">
                    <mxGeometry relative="1" as="geometry"/>
                </mxCell>
                <mxCell id="112" value="YES" style="edgeLabel;html=1;align=center;verticalAlign=middle;resizable=0;points=[];fontColor=#000000;labelBackgroundColor=#FFFFFF;" parent="111" connectable="0" vertex="1">
                    <mxGeometry x="-0.5152" relative="1" as="geometry">
                        <mxPoint y="3" as="offset"/>
                    </mxGeometry>
                </mxCell>
                <mxCell id="113" style="edgeStyle=none;rounded=0;orthogonalLoop=1;jettySize=auto;html=1;exitX=1;exitY=0.5;exitDx=0;exitDy=0;entryX=0.5;entryY=0;entryDx=0;entryDy=0;fillColor=#FFFFFF;strokeColor=#000000;fontColor=#000000;labelBackgroundColor=none;" parent="1" source="110" target="122" edge="1">
                    <mxGeometry relative="1" as="geometry">
                        <Array as="points">
                            <mxPoint x="559" y="365"/>
                            <mxPoint x="679" y="365"/>
                        </Array>
                    </mxGeometry>
                </mxCell>
                <mxCell id="114" style="edgeStyle=none;rounded=0;orthogonalLoop=1;jettySize=auto;html=1;exitX=1;exitY=0.5;exitDx=0;exitDy=0;endArrow=classic;endFill=1;entryX=0.5;entryY=0;entryDx=0;entryDy=0;fillColor=#FFFFFF;strokeColor=#000000;fontColor=#000000;labelBackgroundColor=none;" parent="1" source="116" target="128" edge="1">
                    <mxGeometry relative="1" as="geometry">
                        <mxPoint x="389" y="560.0000000000001" as="targetPoint"/>
                        <Array as="points">
                            <mxPoint x="479" y="440"/>
                            <mxPoint x="535" y="440"/>
                        </Array>
                    </mxGeometry>
                </mxCell>
                <mxCell id="115" value="NO" style="edgeLabel;html=1;align=center;verticalAlign=middle;resizable=0;points=[];fontColor=#000000;labelBackgroundColor=#FFFFFF;" parent="114" connectable="0" vertex="1">
                    <mxGeometry x="-0.9487" y="-2" relative="1" as="geometry">
                        <mxPoint x="11" y="-2" as="offset"/>
                    </mxGeometry>
                </mxCell>
                <mxCell id="116" value="arr[i] &amp;gt; max" style="rhombus;whiteSpace=wrap;html=1;fontSize=11;fillColor=#FFFFFF;strokeColor=#000000;fontColor=#000000;rounded=0;labelBackgroundColor=none;endArrow=classic;" parent="1" vertex="1">
                    <mxGeometry x="323" y="410" width="132" height="60" as="geometry"/>
                </mxCell>
                <mxCell id="117" style="edgeStyle=none;rounded=0;orthogonalLoop=1;jettySize=auto;html=1;entryX=0;entryY=0.5;entryDx=0;entryDy=0;exitX=0.5;exitY=1;exitDx=0;exitDy=0;fillColor=#FFFFFF;strokeColor=#000000;fontColor=#000000;labelBackgroundColor=none;" parent="1" source="118" target="110" edge="1">
                    <mxGeometry relative="1" as="geometry">
                        <Array as="points">
                            <mxPoint x="389" y="630"/>
                            <mxPoint x="289" y="630"/>
                            <mxPoint x="289" y="365"/>
                        </Array>
                    </mxGeometry>
                </mxCell>
                <mxCell id="118" value="max = arr[i]" style="whiteSpace=wrap;html=1;fontSize=11;fillColor=#FFFFFF;strokeColor=#000000;fontColor=#000000;rounded=0;labelBackgroundColor=none;endArrow=classic;" parent="1" vertex="1">
                    <mxGeometry x="349" y="555" width="80" height="40" as="geometry"/>
                </mxCell>
                <mxCell id="119" value="" style="edgeStyle=none;rounded=0;orthogonalLoop=1;jettySize=auto;html=1;entryX=0.5;entryY=0;entryDx=0;entryDy=0;fillColor=#FFFFFF;strokeColor=#000000;fontColor=#000000;labelBackgroundColor=none;" parent="1" source="120" target="110" edge="1">
                    <mxGeometry relative="1" as="geometry"/>
                </mxCell>
                <mxCell id="120" value="max = min = arr[0]" style="rounded=0;whiteSpace=wrap;html=1;fontSize=11;fillColor=#FFFFFF;strokeColor=#000000;fontColor=#000000;labelBackgroundColor=none;endArrow=classic;" parent="1" vertex="1">
                    <mxGeometry x="329" y="270" width="120" height="50" as="geometry"/>
                </mxCell>
                <mxCell id="121" value="" style="edgeStyle=none;rounded=0;orthogonalLoop=1;jettySize=auto;html=1;fillColor=#FFFFFF;strokeColor=#000000;fontColor=#000000;labelBackgroundColor=none;" parent="1" target="123" edge="1">
                    <mxGeometry relative="1" as="geometry">
                        <mxPoint x="679" y="460" as="sourcePoint"/>
                    </mxGeometry>
                </mxCell>
                <mxCell id="122" value="arr&lt;br&gt;max - min" style="shape=document;whiteSpace=wrap;html=1;boundedLbl=1;fillColor=#FFFFCC;strokeColor=#000000;fontSize=11;fontColor=#000000;rounded=0;labelBackgroundColor=none;endArrow=classic;" parent="1" vertex="1">
                    <mxGeometry x="619" y="400" width="120" height="70" as="geometry"/>
                </mxCell>
                <mxCell id="123" value="end" style="ellipse;whiteSpace=wrap;html=1;fillColor=#E6FFCC;strokeColor=#000000;fontSize=11;fontColor=#000000;rounded=0;labelBackgroundColor=none;endArrow=classic;" parent="1" vertex="1">
                    <mxGeometry x="639" y="490" width="80" height="40" as="geometry"/>
                </mxCell>
                <mxCell id="124" value="" style="rounded=0;orthogonalLoop=1;jettySize=auto;html=1;entryX=0.5;entryY=0;entryDx=0;entryDy=0;fillColor=#FFFFFF;strokeColor=#000000;fontColor=#000000;labelBackgroundColor=none;" parent="1" source="128" target="130" edge="1">
                    <mxGeometry relative="1" as="geometry"/>
                </mxCell>
                <mxCell id="125" value="YES" style="edgeLabel;html=1;align=center;verticalAlign=middle;resizable=0;points=[];fontColor=#000000;labelBackgroundColor=#FFFFFF;" parent="124" vertex="1" connectable="0">
                    <mxGeometry x="-0.5429" y="1" relative="1" as="geometry">
                        <mxPoint x="-1" y="2" as="offset"/>
                    </mxGeometry>
                </mxCell>
                <mxCell id="126" style="rounded=0;orthogonalLoop=1;jettySize=auto;html=1;exitX=0;exitY=0.5;exitDx=0;exitDy=0;endArrow=oval;endFill=1;fillColor=#FFFFFF;strokeColor=#000000;fontColor=#000000;labelBackgroundColor=none;" parent="1" source="128" edge="1">
                    <mxGeometry relative="1" as="geometry">
                        <mxPoint x="449" y="630" as="targetPoint"/>
                        <Array as="points">
                            <mxPoint x="449" y="490"/>
                        </Array>
                    </mxGeometry>
                </mxCell>
                <mxCell id="127" value="NO" style="edgeLabel;html=1;align=center;verticalAlign=middle;resizable=0;points=[];fontColor=#000000;labelBackgroundColor=#FFFFFF;" parent="126" vertex="1" connectable="0">
                    <mxGeometry x="-0.9277" relative="1" as="geometry">
                        <mxPoint x="-4" as="offset"/>
                    </mxGeometry>
                </mxCell>
                <mxCell id="128" value="arr[i] &amp;lt; min" style="rhombus;whiteSpace=wrap;html=1;fontSize=11;fillColor=#FFFFFF;strokeColor=#000000;fontColor=#000000;rounded=0;labelBackgroundColor=none;endArrow=classic;" parent="1" vertex="1">
                    <mxGeometry x="469" y="460" width="132" height="60" as="geometry"/>
                </mxCell>
                <mxCell id="129" style="edgeStyle=none;rounded=0;orthogonalLoop=1;jettySize=auto;html=1;exitX=0.5;exitY=1;exitDx=0;exitDy=0;endArrow=oval;endFill=1;fillColor=#FFFFFF;strokeColor=#000000;fontColor=#000000;labelBackgroundColor=none;" parent="1" source="130" edge="1">
                    <mxGeometry relative="1" as="geometry">
                        <mxPoint x="389" y="630" as="targetPoint"/>
                        <Array as="points">
                            <mxPoint x="535" y="630"/>
                        </Array>
                    </mxGeometry>
                </mxCell>
                <mxCell id="130" value="min = arr[i]" style="whiteSpace=wrap;html=1;fontSize=11;fillColor=#FFFFFF;strokeColor=#000000;fontColor=#000000;rounded=0;labelBackgroundColor=none;endArrow=classic;" parent="1" vertex="1">
                    <mxGeometry x="489" y="555" width="92" height="40" as="geometry"/>
                </mxCell>
                <mxCell id="131" value="массив вещественных чисел, разницу между максимальным и минимальным элементов массива" style="text;html=1;strokeColor=#000000;fillColor=#FFFFFF;align=center;verticalAlign=middle;whiteSpace=wrap;rounded=0;labelBackgroundColor=none;fontSize=11;fontColor=#000000;endArrow=classic;" parent="1" vertex="1">
                    <mxGeometry x="289" y="70" width="160" height="70" as="geometry"/>
                </mxCell>
            </root>
        </mxGraphModel>
    </diagram>
</mxfile>